<svg xmlns="http://www.w3.org/2000/svg" width="64" height="64" viewBox="0 0 64 64"><g transform="translate(-96 -96)"><path fill="#d8ecfe" fill-rule="evenodd" d="m 128,101 c -2.77,0 -5,2.23 -5,5 v 31.21094 c -2.75669,1.68612 -4.5957,4.72526 -4.5957,8.19336 0,5.30008 4.29562,9.5957 9.5957,9.5957 5.30009,0 9.5957,-4.29562 9.5957,-9.5957 0,-3.4681 -1.83901,-6.50724 -4.5957,-8.19336 V 106 c 0,-2.77 -2.23,-5 -5,-5 z"/><path style="-inkscape-stroke:none" fill="#5b7fa0" fill-rule="evenodd" d="m 128,105 a 1,1 0 0 0 -1,1 v 33.79102 a 1,1 0 0 0 0.0234,0.0879 c -2.62605,0.46588 -4.63672,2.77048 -4.63672,5.52539 0,3.08823 2.52502,5.61133 5.61328,5.61132 3.08826,0 5.61328,-2.52309 5.61328,-5.61132 0,-2.75491 -2.01067,-5.05951 -4.63672,-5.52539 A 1,1 0 0 0 129,139.79102 V 106 a 1,1 0 0 0 -1,-1 z" color="#000"/><path fill="#374951" fill-rule="evenodd" d="M116 105a1 1 0 00-1 1 1 1 0 001 1h2a1 1 0 001-1 1 1 0 00-1-1zM113 109a1 1 0 00-1 1 1 1 0 001 1h5a1 1 0 001-1 1 1 0 00-1-1zM116 113a1 1 0 00-1 1 1 1 0 001 1h2a1 1 0 001-1 1 1 0 00-1-1zM113 117a1 1 0 00-1 1 1 1 0 001 1h5a1 1 0 001-1 1 1 0 00-1-1zM116 121a1 1 0 00-1 1 1 1 0 001 1h2a1 1 0 001-1 1 1 0 00-1-1zM113 125a1 1 0 00-1 1 1 1 0 001 1h5a1 1 0 001-1 1 1 0 00-1-1zM116 129a1 1 0 00-1 1 1 1 0 001 1h2a1 1 0 001-1 1 1 0 00-1-1z" color="#000"/><path style="-inkscape-stroke:none" fill="#374951" fill-rule="evenodd" d="m 113,133 a 1,1 0 0 0 -1,1 1,1 0 0 0 1,1 h 5 a 1,1 0 0 0 1,-1 1,1 0 0 0 -1,-1 z" color="#000"/><path fill="#374951" fill-rule="evenodd" d="M140 123.5c-.55228 0-1 .44772-1 1v7.08594l-1.29297-1.29297A1 1 0 00137 130a1 1 0 00-.70703.29297 1 1 0 000 1.41406l3 3a1.0001 1.0001 0 001.41406 0l3-3a1 1 0 000-1.41406 1 1 0 00-1.41406 0L141 131.58594V124.5c0-.55228-.44772-1-1-1zM140 104c-.55228 0-1 .44772-1 1v7.08594l-1.29297-1.29297A1 1 0 00137 110.5a1 1 0 00-.70703.29297 1 1 0 000 1.41406l3 3a1.0001 1.0001 0 001.41406 0l3-3a1 1 0 000-1.41406 1 1 0 00-1.41406 0L141 112.08594V105c0-.55228-.44772-1-1-1z" color="#000"/></g></svg>